<svg xmlns="http://www.w3.org/2000/svg" width="152.469" height="63.055" viewBox="0 0 152.469 63.055">
  <g id="Group_40" data-name="Group 40" transform="translate(-140 -8.473)">
    <g id="Group_25" data-name="Group 25" transform="translate(-1514.558 -22.527)">
      <g id="Group_24" data-name="Group 24" transform="translate(1654.558 31)">
        <g id="Path_130" data-name="Path 130" transform="translate(13.267 0)" fill="none">
          <path d="M4.319,0H43.188a4.319,4.319,0,0,1,4.319,4.319V58.736a4.319,4.319,0,0,1-4.319,4.319H4.319A4.319,4.319,0,0,1,0,58.736V4.319A4.319,4.319,0,0,1,4.319,0Z" stroke="none"/>
          <path d="M 4.318817138671875 1.999992370605469 C 3.040218353271484 1.999992370605469 1.999996185302734 3.040214538574219 1.999996185302734 4.318813323974609 L 1.999996185302734 58.73587417602539 C 1.999996185302734 60.01447296142578 3.040218353271484 61.05468368530273 4.318817138671875 61.05468368530273 L 43.18814849853516 61.05468368530273 C 44.46674728393555 61.05468368530273 45.5069580078125 60.01447296142578 45.5069580078125 58.73587417602539 L 45.5069580078125 4.318813323974609 C 45.5069580078125 3.040214538574219 44.46674728393555 1.999992370605469 43.18814849853516 1.999992370605469 L 4.318817138671875 1.999992370605469 M 4.318817138671875 -7.62939453125e-06 L 43.18814849853516 -7.62939453125e-06 C 45.57335662841797 -7.62939453125e-06 47.5069580078125 1.93359375 47.5069580078125 4.318813323974609 L 47.5069580078125 58.73587417602539 C 47.5069580078125 61.1210823059082 45.57335662841797 63.05468368530273 43.18814849853516 63.05468368530273 L 4.318817138671875 63.05468368530273 C 1.933597564697266 63.05468368530273 -3.814697265625e-06 61.1210823059082 -3.814697265625e-06 58.73587417602539 L -3.814697265625e-06 4.318813323974609 C -3.814697265625e-06 1.93359375 1.933597564697266 -7.62939453125e-06 4.318817138671875 -7.62939453125e-06 Z" stroke="none" fill="#fff"/>
        </g>
        <path id="Path_127" data-name="Path 127" d="M2269.526-4893.105l8.822-8.588,7.859,11.455,27.488-35.067v35.067l.614,3.52-4.342,2.3h-37.522l-2.125-7.736Z" transform="translate(-2255.617 4945.52)" fill="#fff" stroke="#fff" stroke-width="3"/>
        <path id="Path_135" data-name="Path 135" d="M19.9-46.577a15.91,15.91,0,0,0,4.205.555A15.077,15.077,0,0,0,39.216-61.087c0-9.15-7.995-15.2-16.728-15.2a16.251,16.251,0,0,0-2.588.185ZM4.28-27.4H17.5V-75.69A17.559,17.559,0,0,0,4.28-58.638Z" transform="translate(-4.28 81.348)" fill="#f07b3f"/>
      </g>
      <path id="Path_137" data-name="Path 137" d="M1479.564-4847.911l-2.313.481-.015,45.167,2.371-2.245Z" transform="translate(190.571 4884.132)" fill="#2d4059"/>
    </g>
    <text id="PM_Design" data-name="PM
Design" transform="translate(254.47 35)" fill="#fff" font-size="24" font-family="ArialMT, Arial"><tspan x="-18" y="0">PM</tspan><tspan x="-37" y="28">Design</tspan></text>
  </g>
</svg>
