<svg xmlns="http://www.w3.org/2000/svg" width="163.336" height="163.431" viewBox="0 0 163.336 163.431">
  <g id="User_Research_Icon" data-name="User Research Icon" transform="translate(-187.766 -885.766)">
    <g id="search_black_24dp" transform="translate(159.03 857.029)">
      <path id="Path_139" data-name="Path 139" d="M122.766,108.395H115.2l-2.683-2.587a62.279,62.279,0,0,0,14.18-51.162c-4.5-26.635-26.731-47.9-53.557-51.162A62.322,62.322,0,0,0,3.484,73.137c3.257,26.826,24.527,49.054,51.162,53.557a62.279,62.279,0,0,0,51.162-14.18l2.587,2.683v7.569l40.719,40.719a10.094,10.094,0,1,0,14.275-14.275Zm-57.485,0a43.114,43.114,0,1,1,43.114-43.114A43.056,43.056,0,0,1,65.281,108.395Z" transform="translate(25.737 25.737)" fill="#f07b3f"/>
    </g>
    <g id="supervised_user_circle_black_24dp" transform="translate(195.555 893.555)">
      <path id="Path_141" data-name="Path 141" d="M45.38,2a43.38,43.38,0,1,0,43.38,43.38A43.4,43.4,0,0,0,45.38,2ZM61.04,29.5a8.372,8.372,0,1,1-8.372,8.372A8.35,8.35,0,0,1,61.04,29.5ZM35.012,22.649A10.238,10.238,0,1,1,24.774,32.886,10.256,10.256,0,0,1,35.012,22.649Zm0,39.606V78.522a34.733,34.733,0,0,1-22.3-21.516c4.555-4.859,15.92-7.331,22.3-7.331a44.127,44.127,0,0,1,8.242.954C36.14,54.4,35.012,59.391,35.012,62.254ZM45.38,80.083a29.716,29.716,0,0,1-3.427-.174V62.254c0-6.16,12.754-9.24,19.087-9.24,4.642,0,12.667,1.692,16.658,4.989A34.785,34.785,0,0,1,45.38,80.083Z" transform="translate(9.066 9.066)" fill="#2d4059" stroke="#707070" stroke-width="1"/>
    </g>
  </g>
</svg>
